<svg xmlns="http://www.w3.org/2000/svg" xmlns:xlink="http://www.w3.org/1999/xlink" width="24" height="24" preserveAspectRatio="xMidYMid meet" viewBox="0 0 24 24" style="-ms-transform: rotate(360deg); -webkit-transform: rotate(360deg); transform: rotate(360deg);"><g fill="none"><path d="M4 4h4v4H4V4z" fill="currentColor"/><path d="M4 10h4v4H4v-4z" fill="currentColor"/><path d="M8 16H4v4h4v-4z" fill="currentColor"/><path d="M10 4h4v4h-4V4z" fill="currentColor"/><path d="M14 10h-4v4h4v-4z" fill="currentColor"/><path d="M10 16h4v4h-4v-4z" fill="currentColor"/><path d="M20 4h-4v4h4V4z" fill="currentColor"/><path d="M16 10h4v4h-4v-4z" fill="currentColor"/><path d="M20 16h-4v4h4v-4z" fill="currentColor"/></g><rect x="0" y="0" width="24" height="24" fill="rgba(0, 0, 0, 0)" /></svg>