<svg xmlns="http://www.w3.org/2000/svg" xmlns:xlink="http://www.w3.org/1999/xlink" width="24" height="24" preserveAspectRatio="xMidYMid meet" viewBox="0 0 24 24" style="-ms-transform: rotate(360deg); -webkit-transform: rotate(360deg); transform: rotate(360deg);"><g fill="none"><path fill-rule="evenodd" clip-rule="evenodd" d="M16 9a4 4 0 1 1-8 0a4 4 0 0 1 8 0zm-2 0a2 2 0 1 1-4 0a2 2 0 0 1 4 0z" fill="currentColor"/><path fill-rule="evenodd" clip-rule="evenodd" d="M12 1C5.925 1 1 5.925 1 12s4.925 11 11 11s11-4.925 11-11S18.075 1 12 1zM3 12c0 2.09.713 4.014 1.908 5.542A8.986 8.986 0 0 1 12.065 14a8.984 8.984 0 0 1 7.092 3.458A9 9 0 1 0 3 12zm9 9a8.963 8.963 0 0 1-5.672-2.012A6.992 6.992 0 0 1 12.065 16a6.991 6.991 0 0 1 5.689 2.92A8.964 8.964 0 0 1 12 21z" fill="currentColor"/></g><rect x="0" y="0" width="24" height="24" fill="rgba(0, 0, 0, 0)" /></svg>